<svg width="126" height="26" viewBox="0 0 126 26" fill="none" xmlns="http://www.w3.org/2000/svg">
<path d="M10.2889 11.3051H6.75974C5.40237 17.8241 4.69381 21.2031 4.69381 21.4693C4.69381 22.6997 6.18693 22.6128 7.59589 21.7762L8.51891 24.8999C7.63933 25.6469 6.49641 25.9864 5.1336 25.9864C2.36184 25.9864 0.955594 24.4898 0.955594 21.8061C0.966453 21.1596 1.62885 17.6855 2.98623 11.3051H0L0.746558 7.69787H3.78166L4.52821 4.00376L5.4078 0H9.18945C9.05552 0.747876 8.79129 2.02361 8.39674 3.8272L7.5606 7.69787H11.0355L10.2889 11.3051Z" fill="#FAFAFA"/>
<path d="M25.7196 7.60551L24.0907 10.9058C23.5612 10.7575 23.0109 10.6978 22.4619 10.7292C20.8526 10.7219 19.2667 11.1148 17.8468 11.8727L15.037 25.2965H11.2554L14.9909 7.69787H18.1128L18.0694 8.31446C19.2279 7.67788 20.5048 7.28645 21.8209 7.16449C23.1369 7.04253 24.464 7.19265 25.7196 7.60551Z" fill="#FAFAFA"/>
<path d="M67.744 17.289C67.657 17.8416 67.6125 18.4 67.611 18.9595C67.611 21.2502 68.6662 22.3946 70.7764 22.3928C73.3717 22.3928 75.0413 21.0727 75.4377 19.1795L79.1297 19.5326C78.2067 23.8433 75.3508 26 70.6461 26C66.2482 26 63.8294 23.1832 63.8294 18.916C63.8294 15.6565 64.7967 12.885 66.7314 10.6015C68.6671 8.271 71.1728 7.12746 74.2052 7.12746C78.3832 7.12746 80.3568 9.77852 80.3568 13.5052C80.3355 14.7779 80.1881 16.0454 79.917 17.289H67.744ZM68.7539 14.1245H76.6267C76.7129 13.7191 76.7575 13.3059 76.7597 12.8914C76.7597 11.4409 75.8367 10.7374 73.9445 10.7374C71.6126 10.7346 69.8968 11.8782 68.7539 14.1245Z" fill="#FAFAFA"/>
<path d="M86.7799 21.4584C86.7799 21.2601 88.2839 14.0811 91.2864 0H87.5129C86.8089 3.30659 86.037 6.8848 85.1972 10.7346C83.7475 17.4655 83.0444 21.1596 83.0444 21.8197C83.0444 24.5033 84.4507 26 87.2224 26C88.5798 26 89.7254 25.6469 90.605 24.9135L89.682 21.7898C88.2757 22.6101 86.7799 22.6997 86.7799 21.4584Z" fill="#FAFAFA"/>
<path d="M97.1584 17.289C97.0714 17.8416 97.0269 18.4 97.0254 18.9595C97.0254 21.2502 98.0806 22.3946 100.191 22.3928C102.786 22.3928 104.456 21.0727 104.852 19.1795L108.544 19.5326C107.621 23.8433 104.765 26 100.061 26C95.6626 26 93.2438 23.1832 93.2438 18.916C93.2438 15.6565 94.2111 12.885 96.1458 10.6015C98.0815 8.271 100.587 7.12746 103.622 7.12746C107.798 7.12746 109.777 9.76494 109.777 13.5052C109.755 14.7779 109.608 16.0454 109.337 17.289H97.1584ZM98.1683 14.1245H106.041C106.127 13.7191 106.172 13.3059 106.174 12.8914C106.174 11.4409 105.251 10.7374 103.359 10.7374C101.027 10.7346 99.3112 11.8782 98.1683 14.1245Z" fill="#FAFAFA"/>
<path d="M126 7.60552L124.371 10.9058C123.842 10.7575 123.291 10.6978 122.742 10.7292C121.133 10.7219 119.547 11.1148 118.127 11.8728L115.315 25.2911H111.536L115.271 7.69244H118.393L118.363 8.31446C119.52 7.67978 120.795 7.28938 122.108 7.16743C123.422 7.04549 124.746 7.1946 126 7.60552V7.60552Z" fill="#FAFAFA"/>
<path d="M22.9885 25.962L21.1914 23.3082L34.0322 5.19076C34.5693 4.43146 35.314 3.84333 36.1769 3.49692C37.0398 3.15051 37.9843 3.06053 38.897 3.23778L43.8324 23.8406L41.8317 25.9185L31.635 23.8786L22.9885 25.962ZM31.9472 20.4453L39.8879 22.0343L36.4456 7.70602L26.6263 21.5589L31.1898 20.4724L31.9472 20.4453Z" fill="#F25D27"/>
<path d="M47.8611 25.8751L42.9257 5.27225L44.9265 3.19431L55.1231 5.23422L63.7669 3.15085L65.5641 5.80464L52.726 23.9221C52.1881 24.6806 51.4433 25.2681 50.5806 25.6145C49.718 25.9608 48.7738 26.0513 47.8611 25.8751ZM46.8784 7.07856L50.3099 21.4068L60.1318 7.5539L55.5575 8.65671L54.8191 8.673L46.8784 7.07856Z" fill="#F25D27"/>
</svg>
